<svg width="45" height="45" viewBox="0 0 45 45" fill="none" xmlns="http://www.w3.org/2000/svg">
<path d="M11.5 33C11.5 33 12.5 38 8.5 41.5C16.5 41 20 35 20 35C35 36 43 30.5 43 20C43 9.5 35 5.5 23 5.5C11 5.5 3 9.5 3 20C3 30.5 11.5 33 11.5 33Z" fill="white"/>
<path d="M8.5 41.5L7.8415 40.7474L5.63142 42.6812L8.56238 42.4981L8.5 41.5ZM11.5 33L12.4806 32.8039C12.4077 32.4395 12.1387 32.1455 11.7822 32.0406L11.5 33ZM20 35L20.0665 34.0022L19.4484 33.961L19.1362 34.4961L20 35ZM9.1585 42.2526C11.383 40.3062 12.2145 37.9383 12.4892 36.084C12.6263 35.1586 12.6264 34.3536 12.592 33.7763C12.5747 33.487 12.5486 33.2528 12.526 33.0869C12.5147 33.0038 12.5043 32.9377 12.4962 32.89C12.4922 32.8662 12.4887 32.8469 12.4861 32.8325C12.4847 32.8253 12.4836 32.8193 12.4827 32.8145C12.4822 32.8121 12.4818 32.8101 12.4815 32.8083C12.4813 32.8074 12.4811 32.8066 12.481 32.8058C12.4809 32.8055 12.4808 32.805 12.4808 32.8048C12.4807 32.8043 12.4806 32.8039 11.5 33C10.5194 33.1961 10.5193 33.1957 10.5193 33.1953C10.5192 33.1952 10.5192 33.1948 10.5191 33.1946C10.519 33.1942 10.519 33.1938 10.5189 33.1935C10.5188 33.193 10.5187 33.1927 10.5188 33.1927C10.5188 33.1928 10.519 33.194 10.5194 33.1964C10.5203 33.2011 10.522 33.2104 10.5243 33.224C10.5289 33.2513 10.5361 33.296 10.5443 33.3565C10.5608 33.4776 10.5816 33.6614 10.5955 33.8955C10.6236 34.3652 10.6237 35.0289 10.5108 35.791C10.2855 37.3117 9.61703 39.1938 7.8415 40.7474L9.1585 42.2526ZM11.5 33C11.7822 32.0406 11.7827 32.0408 11.7831 32.0409C11.7832 32.041 11.7837 32.0411 11.7839 32.0412C11.7844 32.0413 11.7847 32.0414 11.7849 32.0414C11.7853 32.0416 11.7852 32.0415 11.7846 32.0414C11.7834 32.041 11.7803 32.04 11.7752 32.0384C11.7651 32.0353 11.7473 32.0296 11.7224 32.0212C11.6726 32.0045 11.5944 31.9772 11.4919 31.938C11.2866 31.8595 10.985 31.7338 10.6191 31.5509C9.88573 31.1842 8.9043 30.5926 7.92375 29.6985C5.98442 27.9303 4 24.9401 4 20H2C2 25.5599 4.26558 29.0697 6.57625 31.1765C7.7207 32.2199 8.86427 32.9095 9.72466 33.3397C10.1556 33.5552 10.518 33.7069 10.7776 33.8061C10.9075 33.8558 11.0119 33.8924 11.0866 33.9175C11.124 33.93 11.154 33.9396 11.176 33.9466C11.187 33.95 11.1961 33.9528 11.2031 33.9549C11.2065 33.956 11.2095 33.9569 11.212 33.9576C11.2132 33.958 11.2143 33.9583 11.2153 33.9586C11.2158 33.9588 11.2164 33.959 11.2167 33.959C11.2173 33.9592 11.2178 33.9594 11.5 33ZM4 20C4 15.0475 5.862 11.754 9.05126 9.64684C12.3122 7.49231 17.0799 6.5 23 6.5V4.5C16.9201 4.5 11.6878 5.50769 7.94874 7.97816C4.138 10.496 2 14.4525 2 20H4ZM23 6.5C28.9201 6.5 33.6878 7.49231 36.9487 9.64684C40.138 11.754 42 15.0475 42 20H44C44 14.4525 41.862 10.496 38.0513 7.97816C34.3122 5.50769 29.0799 4.5 23 4.5V6.5ZM42 20C42 24.9629 40.1302 28.6263 36.5734 30.9784C32.9569 33.37 27.4608 34.4952 20.0665 34.0022L19.9335 35.9978C27.5392 36.5048 33.5431 35.38 37.6766 32.6466C41.8698 29.8737 44 25.5371 44 20H42ZM20 35C19.1362 34.4961 19.1364 34.4957 19.1367 34.4954C19.1367 34.4953 19.1369 34.495 19.137 34.4948C19.1372 34.4944 19.1374 34.4942 19.1375 34.494C19.1377 34.4936 19.1377 34.4936 19.1375 34.494C19.1371 34.4946 19.1358 34.4967 19.1337 34.5002C19.1296 34.5071 19.122 34.5194 19.1111 34.5369C19.0893 34.5717 19.054 34.6269 19.005 34.6996C18.9068 34.845 18.7542 35.0602 18.5452 35.3232C18.1266 35.85 17.4859 36.5642 16.6098 37.2943C14.8618 38.751 12.1827 40.2679 8.43762 40.5019L8.56238 42.4981C12.8173 42.2321 15.8882 40.499 17.8902 38.8307C18.8891 37.9983 19.6234 37.1812 20.1111 36.5674C20.3552 36.2601 20.5385 36.0026 20.663 35.818C20.7253 35.7257 20.773 35.6514 20.8063 35.5981C20.823 35.5715 20.8361 35.5501 20.8457 35.5343C20.8505 35.5263 20.8544 35.5198 20.8574 35.5147C20.8589 35.5122 20.8602 35.51 20.8612 35.5082C20.8618 35.5073 20.8622 35.5065 20.8627 35.5058C20.8629 35.5054 20.8632 35.5049 20.8633 35.5047C20.8635 35.5043 20.8638 35.5039 20 35Z" fill="black"/>
<circle cx="13" cy="21" r="3" fill="#939DA3"/>
<circle cx="23" cy="21" r="3" fill="#939DA3"/>
<circle cx="33" cy="21" r="3" fill="#939DA3"/>
</svg>
